<?xml version="1.0" encoding="UTF-8"?>
<svg xmlns="http://www.w3.org/2000/svg" xmlns:xlink="http://www.w3.org/1999/xlink" width="16px" height="16px" viewBox="0 0 16 16" version="1.1">
<g id="surface1">
    <rect width="100%" height="100%" fill="white" />
    <path style=" stroke:none;fill-rule:nonzero;fill:rgb(93.333333%,93.333333%,93.333333%);fill-opacity:1;" d="M 15.402344 3.929688 L 7.996094 11.335938 L 0.589844 3.929688 C 0.453125 3.796875 0.230469 3.800781 0.0976562 3.9375 C -0.03125 4.074219 -0.03125 4.289062 0.0976562 4.421875 L 7.75 12.074219 C 7.886719 12.210938 8.105469 12.210938 8.242188 12.074219 L 15.894531 4.421875 C 16.03125 4.289062 16.035156 4.066406 15.902344 3.929688 C 15.769531 3.792969 15.546875 3.789062 15.410156 3.921875 C 15.40625 3.925781 15.40625 3.925781 15.402344 3.929688 Z M 15.402344 3.929688 "/>
<path style=" stroke:none;fill-rule:nonzero;fill:rgb(93.333333%,93.333333%,93.333333%);fill-opacity:1;" d="M 7.996094 12.175781 C 7.902344 12.175781 7.816406 12.140625 7.75 12.074219 L 0.0976562 4.421875 C -0.0351562 4.285156 -0.03125 4.0625 0.105469 3.929688 C 0.242188 3.800781 0.453125 3.800781 0.589844 3.929688 L 7.996094 11.335938 L 15.402344 3.929688 C 15.535156 3.792969 15.753906 3.789062 15.894531 3.921875 C 16.03125 4.054688 16.035156 4.273438 15.902344 4.414062 C 15.898438 4.417969 15.894531 4.417969 15.894531 4.421875 L 8.242188 12.074219 C 8.175781 12.140625 8.085938 12.175781 7.996094 12.175781 Z M 7.996094 12.175781 "/>
</g>
</svg>
